<mxfile host="app.diagrams.net" agent="Mozilla/5.0 (Windows NT 10.0; Win64; x64) AppleWebKit/537.36 (KHTML, like Gecko) Chrome/135.0.0.0 Safari/537.36" version="26.0.16">
  <diagram name="Страница — 1" id="MSI93YP43VTandPZjZZa">
    <mxGraphModel dx="1302" dy="711" grid="1" gridSize="10" guides="1" tooltips="1" connect="1" arrows="1" fold="1" page="1" pageScale="1" pageWidth="827" pageHeight="1169" math="0" shadow="0">
      <root>
        <mxCell id="0" />
        <mxCell id="1" parent="0" />
        <mxCell id="VWah4RAgRdTTPP8-oYya-8" style="edgeStyle=orthogonalEdgeStyle;rounded=0;orthogonalLoop=1;jettySize=auto;html=1;exitX=0.5;exitY=0.5;exitDx=0;exitDy=0;exitPerimeter=0;" edge="1" parent="1" source="VWah4RAgRdTTPP8-oYya-1" target="VWah4RAgRdTTPP8-oYya-2">
          <mxGeometry relative="1" as="geometry" />
        </mxCell>
        <mxCell id="VWah4RAgRdTTPP8-oYya-1" value="Пользователь" style="shape=umlActor;verticalLabelPosition=bottom;verticalAlign=top;html=1;outlineConnect=0;" vertex="1" parent="1">
          <mxGeometry x="80" y="170" width="30" height="60" as="geometry" />
        </mxCell>
        <mxCell id="VWah4RAgRdTTPP8-oYya-15" style="edgeStyle=orthogonalEdgeStyle;rounded=0;orthogonalLoop=1;jettySize=auto;html=1;exitX=0;exitY=0.5;exitDx=0;exitDy=0;" edge="1" parent="1" source="VWah4RAgRdTTPP8-oYya-2" target="VWah4RAgRdTTPP8-oYya-1">
          <mxGeometry relative="1" as="geometry" />
        </mxCell>
        <mxCell id="VWah4RAgRdTTPP8-oYya-19" style="edgeStyle=orthogonalEdgeStyle;rounded=0;orthogonalLoop=1;jettySize=auto;html=1;exitX=1;exitY=0.5;exitDx=0;exitDy=0;entryX=0;entryY=0.5;entryDx=0;entryDy=0;" edge="1" parent="1" source="VWah4RAgRdTTPP8-oYya-2" target="VWah4RAgRdTTPP8-oYya-3">
          <mxGeometry relative="1" as="geometry" />
        </mxCell>
        <mxCell id="VWah4RAgRdTTPP8-oYya-2" value="Web-приложение" style="rounded=1;whiteSpace=wrap;html=1;" vertex="1" parent="1">
          <mxGeometry x="160" y="170" width="120" height="60" as="geometry" />
        </mxCell>
        <mxCell id="VWah4RAgRdTTPP8-oYya-10" style="edgeStyle=orthogonalEdgeStyle;rounded=0;orthogonalLoop=1;jettySize=auto;html=1;exitX=1;exitY=0.5;exitDx=0;exitDy=0;entryX=0;entryY=0.5;entryDx=0;entryDy=0;" edge="1" parent="1" source="VWah4RAgRdTTPP8-oYya-3" target="VWah4RAgRdTTPP8-oYya-4">
          <mxGeometry relative="1" as="geometry" />
        </mxCell>
        <mxCell id="VWah4RAgRdTTPP8-oYya-11" style="edgeStyle=orthogonalEdgeStyle;rounded=0;orthogonalLoop=1;jettySize=auto;html=1;exitX=1;exitY=0.5;exitDx=0;exitDy=0;entryX=0;entryY=0.5;entryDx=0;entryDy=0;" edge="1" parent="1" source="VWah4RAgRdTTPP8-oYya-3" target="VWah4RAgRdTTPP8-oYya-5">
          <mxGeometry relative="1" as="geometry" />
        </mxCell>
        <mxCell id="VWah4RAgRdTTPP8-oYya-12" style="edgeStyle=orthogonalEdgeStyle;rounded=0;orthogonalLoop=1;jettySize=auto;html=1;exitX=1;exitY=0.5;exitDx=0;exitDy=0;entryX=0;entryY=0.5;entryDx=0;entryDy=0;" edge="1" parent="1" source="VWah4RAgRdTTPP8-oYya-3" target="VWah4RAgRdTTPP8-oYya-6">
          <mxGeometry relative="1" as="geometry" />
        </mxCell>
        <mxCell id="VWah4RAgRdTTPP8-oYya-13" style="edgeStyle=orthogonalEdgeStyle;rounded=0;orthogonalLoop=1;jettySize=auto;html=1;exitX=1;exitY=0.5;exitDx=0;exitDy=0;entryX=0;entryY=0.5;entryDx=0;entryDy=0;" edge="1" parent="1" source="VWah4RAgRdTTPP8-oYya-3" target="VWah4RAgRdTTPP8-oYya-7">
          <mxGeometry relative="1" as="geometry" />
        </mxCell>
        <mxCell id="VWah4RAgRdTTPP8-oYya-20" style="edgeStyle=orthogonalEdgeStyle;rounded=0;orthogonalLoop=1;jettySize=auto;html=1;exitX=0;exitY=0.5;exitDx=0;exitDy=0;entryX=1;entryY=0.5;entryDx=0;entryDy=0;" edge="1" parent="1" source="VWah4RAgRdTTPP8-oYya-3" target="VWah4RAgRdTTPP8-oYya-2">
          <mxGeometry relative="1" as="geometry" />
        </mxCell>
        <mxCell id="VWah4RAgRdTTPP8-oYya-3" value="API" style="rounded=1;whiteSpace=wrap;html=1;" vertex="1" parent="1">
          <mxGeometry x="330" y="170" width="120" height="60" as="geometry" />
        </mxCell>
        <mxCell id="VWah4RAgRdTTPP8-oYya-4" value="База данных" style="rounded=1;whiteSpace=wrap;html=1;" vertex="1" parent="1">
          <mxGeometry x="490" y="50" width="120" height="60" as="geometry" />
        </mxCell>
        <mxCell id="VWah4RAgRdTTPP8-oYya-5" value="Сервис для распознавания" style="rounded=1;whiteSpace=wrap;html=1;" vertex="1" parent="1">
          <mxGeometry x="490" y="130" width="120" height="60" as="geometry" />
        </mxCell>
        <mxCell id="VWah4RAgRdTTPP8-oYya-6" value="ФНС" style="rounded=1;whiteSpace=wrap;html=1;" vertex="1" parent="1">
          <mxGeometry x="490" y="210" width="120" height="60" as="geometry" />
        </mxCell>
        <mxCell id="VWah4RAgRdTTPP8-oYya-7" value="API ВКонтакте" style="rounded=1;whiteSpace=wrap;html=1;" vertex="1" parent="1">
          <mxGeometry x="490" y="290" width="120" height="60" as="geometry" />
        </mxCell>
      </root>
    </mxGraphModel>
  </diagram>
</mxfile>
